<svg xmlns="http://www.w3.org/2000/svg" viewBox="0 0 64 64" fill="none">
  <path
    fill="#D94A25"
    d="M36.8 4c3.9 1.8 6.2 4.9 6.2 9.3 0 2.2-.6 4.2-.2 6 1.2 5.5 7.9 4.9 11.7 10.9 4.1 6.5 2.5 15.7-1.9 22.2-.5-4.2-2-8.6-4.3-12-3.2-4.8-7.1-6.7-11.3-6.7-3.8 0-7.5 2.1-10.3 5.8-.3-4.8-3.7-8.2-7.1-10.2 3.3-.5 5.4-2.4 5.4-5.4 0-3.5-2.8-6.5-5.7-8.3 2.7-.2 5 .8 6.8 2.8.9-6 4.3-10.6 10.7-14.4Z"
  />
  <path
    fill="#D94A25"
    d="M21.8 28.6c3.3 1.9 6.1 5 6.1 9 0 2.5-1.1 4.4-3.3 5.8 2.5 6.8 8.9 11 17 11 2.2 0 4.4-.3 6.1-.9-3.2 3.6-8.5 6.5-15.1 6.5-13.1 0-21.6-10.2-21.6-22.9 0-3.1.6-6.1 1.8-8.8 2.1-.3 5.8-.3 9 .3Z"
  />
  <path
    fill="#D94A25"
    d="M37.1 45.7c1.8 0 3.8.4 5.9 1.3 6-2.8 10.7-7.2 12.7-12.3 1.1.1 2.1.4 3 .8-1.9 8.9-10.2 16.5-21.6 17.7-2.7.3-5.1-.1-7.5-1 1.9-4 4-6.5 7.5-6.5Z"
  />
  <path
    fill="#D94A25"
    d="M31.4 44.9c.7 0 1.2.6 1.1 1.3-.5 2.7-1.4 5.3-2.4 7.7-.2.6-.9 1-1.5.7-.6-.2-1-.9-.7-1.5 1-2.2 1.8-4.6 2.2-7 .1-.7.7-1.2 1.3-1.2Z"
  />
</svg>
